<svg width="50" height="40" viewBox="0 0 50 40" version="1.1" xmlns="http://www.w3.org/2000/svg" xmlns:xlink="http://www.w3.org/1999/xlink" xmlns:figma="http://www.figma.com/figma/ns">
<title>heart</title>
<desc>Created using Figma</desc>
<g id="Canvas" transform="translate(129 124)" figma:type="canvas">
<mask id="mask0_alpha" mask-type="alpha">
<path d="M -129 -124L -79 -124L -79 -84L -129 -84L -129 -124Z" fill="#FFFFFF"/>
</mask>
<g id="heart" mask="url(#mask0_alpha)" figma:type="frame">
<g id="Vector 7" figma:type="vector">
<use xlink:href="#path0_fill" transform="matrix(0.707107 0.707107 -0.707107 0.707107 -115.5 -120.5)" fill="#FFFFFF"/>
<use xlink:href="#path1_fill" transform="matrix(0.707107 0.707107 -0.707107 0.707107 -115.5 -120.5)" fill="#FFFFFF"/>
<use xlink:href="#path2_fill" transform="matrix(0.707107 0.707107 -0.707107 0.707107 -115.5 -120.5)" fill="#FFFFFF"/>
<use xlink:href="#path3_fill" transform="matrix(0.707107 0.707107 -0.707107 0.707107 -115.5 -120.5)" fill="#FFFFFF"/>
<use xlink:href="#path4_stroke" transform="matrix(0.707107 0.707107 -0.707107 0.707107 -115.5 -120.5)" fill="#FFFFFF"/>
</g>
<g id="heart" figma:type="vector">
<mask id="mask1_outline_ins">
<use xlink:href="#path5_fill" fill="white" transform="translate(-114 -113)"/>
</mask>
<g mask="url(#mask1_outline_ins)">
<use xlink:href="#path6_stroke_2x" transform="translate(-114 -113)" fill="#FFFFFF"/>
</g>
</g>
</g>
</g>
<defs>
<path id="path0_fill" d="M 0 0L 3 3L 8 3L 5 0L 0 0Z"/>
<path id="path1_fill" d="M 8 3L 3 3L 0 6L 5 6L 8 3Z"/>
<path id="path2_fill" d="M 33 3L 33 5.5L 38 3L 33 3Z"/>
<path id="path3_fill" d="M 38 3L 33 0.5L 33 3L 38 3Z"/>
<path id="path4_stroke" d="M 38 3L 38.4472 3.89443L 40.2361 3L 38.4472 2.10557L 38 3ZM 33 0.5L 33.4472 -0.394427L 32 -1.11803L 32 0.5L 33 0.5ZM 33 5.5L 32 5.5L 32 7.11803L 33.4472 6.39443L 33 5.5ZM 0 0L 0 -1L -2.41421 -1L -0.707107 0.707107L 0 0ZM 5 0L 5.70711 -0.707107L 5.41421 -1L 5 -1L 5 0ZM 5 6L 5 7L 5.41421 7L 5.70711 6.70711L 5 6ZM 0 6L -0.707107 5.29289L -2.41421 7L 0 7L 0 6ZM 38.4472 2.10557L 33.4472 -0.394427L 32.5528 1.39443L 37.5528 3.89443L 38.4472 2.10557ZM 33.4472 6.39443L 38.4472 3.89443L 37.5528 2.10557L 32.5528 4.60557L 33.4472 6.39443ZM 3.70711 2.29289L 0.707107 -0.707107L -0.707107 0.707107L 2.29289 3.70711L 3.70711 2.29289ZM 0 1L 5 1L 5 -1L 0 -1L 0 1ZM 3 4L 8 4L 8 2L 3 2L 3 4ZM 4.29289 0.707107L 7.29289 3.70711L 8.70711 2.29289L 5.70711 -0.707107L 4.29289 0.707107ZM 7.29289 2.29289L 4.29289 5.29289L 5.70711 6.70711L 8.70711 3.70711L 7.29289 2.29289ZM 5 5L 0 5L 0 7L 5 7L 5 5ZM 0.707107 6.70711L 3.70711 3.70711L 2.29289 2.29289L -0.707107 5.29289L 0.707107 6.70711ZM 32 3L 32 5.5L 34 5.5L 34 3L 32 3ZM 38 2L 33 2L 33 4L 38 4L 38 2ZM 32 0.5L 32 3L 34 3L 34 0.5L 32 0.5ZM 28.4558 4L 33 4L 33 2L 28.4558 2L 28.4558 4ZM 8 4L 10.0711 4L 10.0711 2L 8 2L 8 4Z"/>
<path id="path5_fill" d="M 11.5011 3.03004C 12.5305 1.58463 14.4653 -0.0575859 16.9118 0.0015518C 20.1825 0.0806138 23 2.82408 23 6.33437C 23 12.2537 18.5381 15.0304 11.5011 19C 4.46422 15.0304 0 12.2537 0 6.33437C 0 2.82408 2.81747 0.0806138 6.08823 0.0015518C 8.53474 -0.0575859 10.4718 1.58463 11.5011 3.03004Z"/>
<path id="path6_stroke_2x" d="M 11.5011 3.03004L 9.87202 4.19019L 11.5011 6.47786L 13.1303 4.19019L 11.5011 3.03004ZM 16.9118 0.0015518L 16.8634 2.00097L 16.9118 0.0015518ZM 11.5011 19L 10.5185 20.7419L 11.5011 21.2963L 12.4838 20.7419L 11.5011 19ZM 6.08823 0.0015518L 6.13657 2.00097L 6.08823 0.0015518ZM 13.1303 4.19019C 13.9709 3.00977 15.3597 1.96462 16.8634 2.00097L 16.9601 -1.99786C 13.5709 -2.07979 11.0901 0.159482 9.87202 1.86989L 13.1303 4.19019ZM 16.8634 2.00097C 19.0585 2.05403 21 3.91949 21 6.33437L 25 6.33437C 25 1.72867 21.3066 -1.8928 16.9601 -1.99786L 16.8634 2.00097ZM 21 6.33437C 21 8.67348 20.1648 10.349 18.4987 11.9609C 16.6844 13.7361 14.0222 15.2816 10.5185 17.2581L 12.4838 20.7419C 16.017 18.7487 19.1043 16.9211 21.2801 14.8357C 23.6042 12.587 25 9.91457 25 6.33437L 21 6.33437ZM 13.1303 1.86989C 11.9116 0.158656 9.42846 -2.07977 6.0399 -1.99786L 6.13657 2.00097C 7.64103 1.9646 9.03199 3.0106 9.87202 4.19019L 13.1303 1.86989ZM 6.0399 -1.99786C 1.6934 -1.8928 -2 1.72867 -2 6.33437L 2 6.33437C 2 3.91949 3.94153 2.05403 6.13657 2.00097L 6.0399 -1.99786ZM -2 6.33437C -2 9.9149 -0.603382 12.5874 1.72126 14.8359C 3.89763 16.9212 6.98536 18.7488 10.5185 20.7419L 12.4838 17.2581C 8.98001 15.2816 6.31716 13.736 4.50219 11.9607C 2.83549 10.3487 2 8.67316 2 6.33437L -2 6.33437Z"/>
</defs>
</svg>
