<svg width="40" height="40" viewBox="0 0 40 40" version="1.1" xmlns="http://www.w3.org/2000/svg" xmlns:xlink="http://www.w3.org/1999/xlink" xmlns:figma="http://www.figma.com/figma/ns">
<title>like</title>
<desc>Created using Figma</desc>
<g id="Canvas" transform="translate(2 -4)" figma:type="canvas">
<mask id="mask0_alpha" mask-type="alpha">
<path d="M -2 4L 38 4L 38 44L -2 44L -2 4Z" fill="#FFFFFF"/>
</mask>
<g id="like" mask="url(#mask0_alpha)" figma:type="frame">
<g id="heart" figma:type="vector">
<mask id="mask1_outline_ins">
<use xlink:href="#path0_fill" fill="white" transform="translate(5 15)"/>
</mask>
<g mask="url(#mask1_outline_ins)">
<use xlink:href="#path1_stroke_2x" transform="translate(5 15)" fill="#58656E"/>
</g>
</g>
</g>
</g>
<defs>
<path id="path0_fill" d="M 11.5011 3.03004C 12.5305 1.58463 14.4653 -0.0575859 16.9118 0.0015518C 20.1825 0.0806138 23 2.82408 23 6.33437C 23 12.2537 18.5381 15.0304 11.5011 19C 4.46422 15.0304 0 12.2537 0 6.33437C 0 2.82408 2.81747 0.0806138 6.08823 0.0015518C 8.53474 -0.0575859 10.4718 1.58463 11.5011 3.03004Z"/>
<path id="path1_stroke_2x" d="M 11.5011 3.03004L 9.87202 4.19019L 11.5011 6.47786L 13.1303 4.19019L 11.5011 3.03004ZM 16.9118 0.0015518L 16.8634 2.00097L 16.9118 0.0015518ZM 11.5011 19L 10.5185 20.7419L 11.5011 21.2963L 12.4838 20.7419L 11.5011 19ZM 6.08823 0.0015518L 6.13657 2.00097L 6.08823 0.0015518ZM 13.1303 4.19019C 13.9709 3.00977 15.3597 1.96462 16.8634 2.00097L 16.9601 -1.99786C 13.5709 -2.07979 11.0901 0.159482 9.87202 1.86989L 13.1303 4.19019ZM 16.8634 2.00097C 19.0585 2.05403 21 3.91949 21 6.33437L 25 6.33437C 25 1.72867 21.3066 -1.8928 16.9601 -1.99786L 16.8634 2.00097ZM 21 6.33437C 21 8.67348 20.1648 10.349 18.4987 11.9609C 16.6844 13.7361 14.0222 15.2816 10.5185 17.2581L 12.4838 20.7419C 16.017 18.7487 19.1043 16.9211 21.2801 14.8357C 23.6042 12.587 25 9.91457 25 6.33437L 21 6.33437ZM 13.1303 1.86989C 11.9116 0.158656 9.42846 -2.07977 6.0399 -1.99786L 6.13657 2.00097C 7.64103 1.9646 9.03199 3.0106 9.87202 4.19019L 13.1303 1.86989ZM 6.0399 -1.99786C 1.6934 -1.8928 -2 1.72867 -2 6.33437L 2 6.33437C 2 3.91949 3.94153 2.05403 6.13657 2.00097L 6.0399 -1.99786ZM -2 6.33437C -2 9.9149 -0.603382 12.5874 1.72126 14.8359C 3.89763 16.9212 6.98536 18.7488 10.5185 20.7419L 12.4838 17.2581C 8.98001 15.2816 6.31716 13.736 4.50219 11.9607C 2.83549 10.3487 2 8.67316 2 6.33437L -2 6.33437Z"/>
</defs>
</svg>
