<svg width="40" height="40" viewBox="0 0 40 40" version="1.1" xmlns="http://www.w3.org/2000/svg" xmlns:xlink="http://www.w3.org/1999/xlink" xmlns:figma="http://www.figma.com/figma/ns">
<title>question</title>
<desc>Created using Figma</desc>
<g id="Canvas" transform="translate(-150 175)" figma:type="canvas">
<mask id="mask0_alpha" mask-type="alpha">
<path d="M 150 -175L 190 -175L 190 -135L 150 -135L 150 -175Z" fill="#FFFFFF"/>
</mask>
<g id="question" mask="url(#mask0_alpha)" figma:type="frame">
<g id="Vector 16" figma:type="vector">
<use xlink:href="#path0_stroke" transform="translate(158.021 -147)" fill="#FFFFFF"/>
</g>
<g id="Vector 17" figma:type="vector">
<use xlink:href="#path1_stroke" transform="matrix(0.707107 0.707107 -0.707107 0.707107 167.629 -157.925)" fill="#FFFFFF"/>
</g>
<g id="Ellipse 6" figma:type="ellipse">
<use xlink:href="#path2_stroke" transform="matrix(0.707107 0.707107 -0.707107 0.707107 173.065 -170)" fill="#FFFFFF"/>
</g>
<g id="Vector 14" figma:type="vector">
<use xlink:href="#path3_stroke" transform="translate(168 -164)" fill="#FFFFFF"/>
</g>
<g id="Vector 14" figma:type="vector">
<use xlink:href="#path3_stroke" transform="translate(170 -166)" fill="#FFFFFF"/>
</g>
</g>
</g>
<defs>
<path id="path0_stroke" d="M 3.76918 4.93656L 4.06026 5.62777L 3.76918 4.93656ZM 1.52876 -0.1C 0.461068 0.700771 -0.227196 1.53542 -0.546128 2.36545C -0.873206 3.21668 -0.801354 4.05005 -0.367555 4.71947C 0.475162 6.01993 2.3731 6.33826 4.06026 5.62777L 3.4781 4.24535C 2.1996 4.78374 1.20233 4.38379 0.89125 3.90375C 0.748152 3.68292 0.678461 3.36048 0.854065 2.90347C 1.03781 2.42526 1.49646 1.79923 2.42876 1.1L 1.52876 -0.1ZM 4.06026 5.62777C 5.68468 4.93386 6.61999 4.14163 7.55753 3.37026C 8.49602 2.59801 9.45127 1.83283 11.2717 1.04467L 10.6714 -0.329964C 8.67876 0.547046 7.55354 1.43108 6.60446 2.21195C 5.65444 2.9937 4.89508 3.6585 3.4781 4.24535L 4.06026 5.62777ZM 11.2717 1.04467C 12.9159 0.326635 14.4388 1.03903 14.7986 1.77835C 14.9416 2.07209 14.9603 2.46612 14.5206 2.96311C 14.0442 3.50171 13.0414 4.12608 11.1977 4.62931L 11.5927 6.07638C 13.562 5.53888 14.8893 4.81031 15.6442 3.95693C 16.4358 3.06195 16.5869 2.02498 16.1473 1.12188C 15.3421 -0.532469 12.8402 -1.27709 10.6714 -0.329964L 11.2717 1.04467Z"/>
<path id="path1_stroke" d="M 0.497895 13.1824L 1.4979 13.1824L 1.4979 13.1633L 1.49717 13.1442L 0.497895 13.1824ZM 4.53636 13.1824L 3.53709 13.1442L 3.53636 13.1633L 3.53636 13.1824L 4.53636 13.1824ZM -0.502105 13.1824C -0.502105 13.8903 0.0899512 14.2012 0.22905 14.2698C 0.420975 14.3601 0.70691 14.4454 0.940516 14.4913C 1.37722 14.5733 1.97642 14.6175 2.51713 14.6181C 3.05783 14.6175 3.65704 14.5733 4.09374 14.4913C 4.32734 14.4454 4.61328 14.3601 4.8052 14.2698C 4.9443 14.2012 5.53636 13.8903 5.53636 13.1824L 3.53636 13.1824C 3.53636 12.9024 3.66511 12.704 3.75906 12.6031C 3.84296 12.513 3.91657 12.4781 3.92046 12.4762C 3.94938 12.4575 3.86196 12.5003 3.71696 12.5271C 3.39645 12.5903 2.98604 12.6188 2.51713 12.6181C 2.04822 12.6188 1.63781 12.5903 1.31729 12.5271C 1.17229 12.5003 1.08487 12.4575 1.1138 12.4762C 1.11768 12.4781 1.19129 12.513 1.27519 12.6031C 1.36914 12.704 1.4979 12.9024 1.4979 13.1824L -0.502105 13.1824ZM -0.999272 0.183639L -0.501376 13.2205L 1.49717 13.1442L 0.999272 0.107312L -0.999272 0.183639ZM 5.53563 13.2205L 6.03908 0.0381635L 4.04054 -0.0381635L 3.53709 13.1442L 5.53563 13.2205Z"/>
<path id="path2_stroke" d="M 14 6.39106C 14 9.22439 11.2459 11.7821 7.5 11.7821L 7.5 13.7821C 12.0384 13.7821 16 10.6171 16 6.39106L 14 6.39106ZM 7.5 11.7821C 3.75412 11.7821 1 9.22439 1 6.39106L -1 6.39106C -1 10.6171 2.96161 13.7821 7.5 13.7821L 7.5 11.7821ZM 1 6.39106C 1 3.55773 3.75412 1 7.5 1L 7.5 -1C 2.96161 -1 -1 2.16502 -1 6.39106L 1 6.39106ZM 7.5 1C 11.2459 1 14 3.55773 14 6.39106L 16 6.39106C 16 2.16502 12.0384 -1 7.5 -1L 7.5 1Z"/>
<path id="path3_stroke" d="M -0.53033 0.53033L 8.96967 10.0303L 10.0303 8.96967L 0.53033 -0.53033L -0.53033 0.53033Z"/>
</defs>
</svg>
